<svg id="my-svg" width="100%" xmlns="http://www.w3.org/2000/svg" xmlns:xlink="http://www.w3.org/1999/xlink" class="erDiagram" style="max-width: 197.953px; background-color: white;" viewBox="0 0 197.953125 288" role="graphics-document document" aria-roledescription="er"><style>#my-svg{font-family:"trebuchet ms",verdana,arial,sans-serif;font-size:16px;fill:#333;}@keyframes edge-animation-frame{from{stroke-dashoffset:0;}}@keyframes dash{to{stroke-dashoffset:0;}}#my-svg .edge-animation-slow{stroke-dasharray:9,5!important;stroke-dashoffset:900;animation:dash 50s linear infinite;stroke-linecap:round;}#my-svg .edge-animation-fast{stroke-dasharray:9,5!important;stroke-dashoffset:900;animation:dash 20s linear infinite;stroke-linecap:round;}#my-svg .error-icon{fill:#552222;}#my-svg .error-text{fill:#552222;stroke:#552222;}#my-svg .edge-thickness-normal{stroke-width:1px;}#my-svg .edge-thickness-thick{stroke-width:3.5px;}#my-svg .edge-pattern-solid{stroke-dasharray:0;}#my-svg .edge-thickness-invisible{stroke-width:0;fill:none;}#my-svg .edge-pattern-dashed{stroke-dasharray:3;}#my-svg .edge-pattern-dotted{stroke-dasharray:2;}#my-svg .marker{fill:#333333;stroke:#333333;}#my-svg .marker.cross{stroke:#333333;}#my-svg svg{font-family:"trebuchet ms",verdana,arial,sans-serif;font-size:16px;}#my-svg p{margin:0;}#my-svg .entityBox{fill:#ECECFF;stroke:#9370DB;}#my-svg .relationshipLabelBox{fill:hsl(80, 100%, 96.2745098039%);opacity:0.7;background-color:hsl(80, 100%, 96.2745098039%);}#my-svg .relationshipLabelBox rect{opacity:0.5;}#my-svg .labelBkg{background-color:rgba(248.6666666666, 255, 235.9999999999, 0.5);}#my-svg .edgeLabel{background-color:rgba(232,232,232, 0.8);}#my-svg .edgeLabel .label rect{fill:rgba(232,232,232, 0.8);}#my-svg .edgeLabel .label text{fill:#333;}#my-svg .edgeLabel .label{fill:#9370DB;font-size:14px;}#my-svg .label{font-family:"trebuchet ms",verdana,arial,sans-serif;color:#333;}#my-svg .edge-pattern-dashed{stroke-dasharray:8,8;}#my-svg .node rect,#my-svg .node circle,#my-svg .node ellipse,#my-svg .node polygon{fill:#ECECFF;stroke:#9370DB;stroke-width:1px;}#my-svg .relationshipLine{stroke:#333333;stroke-width:1px;fill:none;}#my-svg .marker{fill:none!important;stroke:#333333!important;stroke-width:1;}#my-svg [data-look=neo].labelBkg{background-color:rgba(248.6666666666, 255, 235.9999999999, 0.5);}#my-svg .node .neo-node{stroke:#9370DB;}#my-svg [data-look="neo"].node rect,#my-svg [data-look="neo"].cluster rect,#my-svg [data-look="neo"].node polygon{stroke:#9370DB;filter:drop-shadow(1px 2px 2px rgba(185, 185, 185, 1));}#my-svg [data-look="neo"].swimlane.cluster rect{filter:none;}#my-svg [data-look="neo"].node path{stroke:#9370DB;stroke-width:1px;}#my-svg [data-look="neo"].node .outer-path{filter:drop-shadow(1px 2px 2px rgba(185, 185, 185, 1));}#my-svg [data-look="neo"].node .neo-line path{stroke:#9370DB;filter:none;}#my-svg [data-look="neo"].node circle{stroke:#9370DB;filter:drop-shadow(1px 2px 2px rgba(185, 185, 185, 1));}#my-svg [data-look="neo"].node circle .state-start{fill:#000000;}#my-svg [data-look="neo"].icon-shape .icon{fill:#9370DB;filter:drop-shadow(1px 2px 2px rgba(185, 185, 185, 1));}#my-svg [data-look="neo"].icon-shape .icon-neo path{stroke:#9370DB;filter:drop-shadow(1px 2px 2px rgba(185, 185, 185, 1));}#my-svg :root{--mermaid-font-family:"trebuchet ms",verdana,arial,sans-serif;}</style><g><defs><marker id="my-svg_er-onlyOneStart" class="marker onlyOne er" refX="0" refY="9" markerWidth="18" markerHeight="18" orient="auto"><path d="M9,0 L9,18 M15,0 L15,18"/></marker></defs><defs><marker id="my-svg_er-onlyOneEnd" class="marker onlyOne er" refX="18" refY="9" markerWidth="18" markerHeight="18" orient="auto"><path d="M3,0 L3,18 M9,0 L9,18"/></marker></defs><defs><marker id="my-svg_er-zeroOrOneStart" class="marker zeroOrOne er" refX="0" refY="9" markerWidth="30" markerHeight="18" orient="auto"><circle fill="white" cx="21" cy="9" r="6"/><path d="M9,0 L9,18"/></marker></defs><defs><marker id="my-svg_er-zeroOrOneEnd" class="marker zeroOrOne er" refX="30" refY="9" markerWidth="30" markerHeight="18" orient="auto"><circle fill="white" cx="9" cy="9" r="6"/><path d="M21,0 L21,18"/></marker></defs><defs><marker id="my-svg_er-oneOrMoreStart" class="marker oneOrMore er" refX="18" refY="18" markerWidth="45" markerHeight="36" orient="auto"><path d="M0,18 Q 18,0 36,18 Q 18,36 0,18 M42,9 L42,27"/></marker></defs><defs><marker id="my-svg_er-oneOrMoreEnd" class="marker oneOrMore er" refX="27" refY="18" markerWidth="45" markerHeight="36" orient="auto"><path d="M3,9 L3,27 M9,18 Q27,0 45,18 Q27,36 9,18"/></marker></defs><defs><marker id="my-svg_er-zeroOrMoreStart" class="marker zeroOrMore er" refX="18" refY="18" markerWidth="57" markerHeight="36" orient="auto"><circle fill="white" cx="48" cy="18" r="6"/><path d="M0,18 Q18,0 36,18 Q18,36 0,18"/></marker></defs><defs><marker id="my-svg_er-zeroOrMoreEnd" class="marker zeroOrMore er" refX="39" refY="18" markerWidth="57" markerHeight="36" orient="auto"><circle fill="white" cx="9" cy="18" r="6"/><path d="M21,18 Q39,0 57,18 Q39,36 21,18"/></marker></defs><g class="root"><g class="clusters"/><g class="edgePaths"><path d="M98.977,93.5L98.977,101.917C98.977,110.333,98.977,127.167,98.977,144C98.977,160.833,98.977,177.667,98.977,186.083L98.977,194.5" id="my-svg-id_entity-SINHVIEN-0_entity-MONHOC-1_0" class="edge-thickness-normal edge-pattern-solid relationshipLine" style="undefined;;;undefined" data-edge="true" data-et="edge" data-id="id_entity-SINHVIEN-0_entity-MONHOC-1_0" data-points="W3sieCI6OTguOTc2NTYyNSwieSI6OTMuNX0seyJ4Ijo5OC45NzY1NjI1LCJ5IjoxNDR9LHsieCI6OTguOTc2NTYyNSwieSI6MTk0LjV9XQ==" data-look="classic" marker-start="url(#my-svg_er-zeroOrMoreStart)" marker-end="url(#my-svg_er-zeroOrMoreEnd)"/></g><g class="edgeLabels"><g class="edgeLabel" transform="translate(98.9765625, 144)"><g class="label" data-id="id_entity-SINHVIEN-0_entity-MONHOC-1_0" transform="translate(-24.0078125, -10.5)"><foreignObject width="48.015625" height="21"><div xmlns="http://www.w3.org/1999/xhtml" class="labelBkg" style="display: table-cell; white-space: nowrap; line-height: 1.5; max-width: 200px; text-align: center;"><span class="edgeLabel"><p>đăng ký</p></span></div></foreignObject></g></g></g><g class="nodes"><g class="node default" id="my-svg-entity-SINHVIEN-0" data-look="classic" transform="translate(98.9765625, 50.75)"><g class="outer-path" style=""><path d="M-85.1875 -42.75 L85.1875 -42.75 L85.1875 42.75 L-85.1875 42.75" stroke="none" stroke-width="0" fill="#ECECFF"/><path d="M-85.1875 -42.75 C-19.396707549471387 -42.75, 46.39408490105723 -42.75, 85.1875 -42.75 M-85.1875 -42.75 C-43.19250715619233 -42.75, -1.197514312384655 -42.75, 85.1875 -42.75 M85.1875 -42.75 C85.1875 -12.519399380173688, 85.1875 17.711201239652624, 85.1875 42.75 M85.1875 -42.75 C85.1875 -22.623316054403524, 85.1875 -2.4966321088070487, 85.1875 42.75 M85.1875 42.75 C51.065145584218506 42.75, 16.94279116843701 42.75, -85.1875 42.75 M85.1875 42.75 C31.040199520899144 42.75, -23.107100958201713 42.75, -85.1875 42.75 M-85.1875 42.75 C-85.1875 23.08943488125853, -85.1875 3.42886976251706, -85.1875 -42.75 M-85.1875 42.75 C-85.1875 20.20899486606107, -85.1875 -2.3320102678778625, -85.1875 -42.75" stroke="#9370DB" stroke-width="1.3" fill="none" stroke-dasharray="0 0"/></g><g style="" class="row-rect-odd"><path d="M-85.1875 0 L85.1875 0 L85.1875 42.75 L-85.1875 42.75" stroke="none" stroke-width="0" fill="hsl(240, 100%, 100%)"/><path d="M-85.1875 0 C-23.322030965489525 0, 38.54343806902095 0, 85.1875 0 M-85.1875 0 C-35.28774063106112 0, 14.612018737877762 0, 85.1875 0 M85.1875 0 C85.1875 16.011107989750727, 85.1875 32.02221597950145, 85.1875 42.75 M85.1875 0 C85.1875 9.651067942209554, 85.1875 19.30213588441911, 85.1875 42.75 M85.1875 42.75 C30.438070390629385 42.75, -24.31135921874123 42.75, -85.1875 42.75 M85.1875 42.75 C23.259505677684338 42.75, -38.668488644631324 42.75, -85.1875 42.75 M-85.1875 42.75 C-85.1875 33.47328222004854, -85.1875 24.196564440097074, -85.1875 0 M-85.1875 42.75 C-85.1875 32.338784900727745, -85.1875 21.927569801455498, -85.1875 0" stroke="#9370DB" stroke-width="1.3" fill="none" stroke-dasharray="0 0"/></g><g class="label name" transform="translate(-32.734375, -33.375)" style=""><foreignObject width="65.46875" height="24"><div xmlns="http://www.w3.org/1999/xhtml" style="display: table-cell; white-space: nowrap; line-height: 1.5; max-width: 176px; text-align: start;"><span class="nodeLabel"><p>SINHVIEN</p></span></div></foreignObject></g><g class="label attribute-type" transform="translate(-72.6875, 9.375)" style=""><foreignObject width="40.375" height="24"><div xmlns="http://www.w3.org/1999/xhtml" style="display: table-cell; white-space: nowrap; line-height: 1.5; max-width: 136px; text-align: start;"><span class="nodeLabel"><p>string</p></span></div></foreignObject></g><g class="label attribute-name" transform="translate(-7.3125, 9.375)" style=""><foreignObject width="36.859375" height="24"><div xmlns="http://www.w3.org/1999/xhtml" style="display: table-cell; white-space: nowrap; line-height: 1.5; max-width: 143px; text-align: start;"><span class="nodeLabel"><p>MaSV</p></span></div></foreignObject></g><g class="label attribute-keys" transform="translate(54.546875, 9.375)" style=""><foreignObject width="18.140625" height="24"><div xmlns="http://www.w3.org/1999/xhtml" style="display: table-cell; white-space: nowrap; line-height: 1.5; max-width: 122px; text-align: start;"><span class="nodeLabel"><p>PK</p></span></div></foreignObject></g><g class="label attribute-comment" transform="translate(97.6875, 9.375)" style=""><foreignObject width="0" height="0"><div xmlns="http://www.w3.org/1999/xhtml" style="display: table-cell; white-space: nowrap; line-height: 1.5; max-width: 100px; text-align: start;"><span class="nodeLabel"></span></div></foreignObject></g><g class="divider"><path d="M-85.1875 -0.00005 L-85.1875 0.00005 L85.1875 0.00005 L85.1875 -0.00005" stroke="none" stroke-width="0" fill="#ECECFF" fill-rule="evenodd"/><path d="M-85.1875 -0.00005 C-85.1875 -0.000021693904393227104, -85.1875 0.000006612191213545794, -85.1875 0.00005 M-85.1875 -0.00005 C-85.1875 -0.00002568032538485057, -85.1875 -0.0000013606507697011349, -85.1875 0.00005 M-85.1875 0.00005 C-21.44687545714818 0.00005, 42.29374908570364 0.00005, 85.1875 0.00005 M-85.1875 0.00005 C-21.24485372520313 0.00005, 42.69779254959374 0.00005, 85.1875 0.00005 M85.1875 0.00005 C85.1875 0.000028860669860038323, 85.1875 0.000007721339720076644, 85.1875 -0.00005 M85.1875 0.00005 C85.1875 0.000021922202421816245, 85.1875 -0.000006155595156367512, 85.1875 -0.00005 M85.1875 -0.00005 C39.7816581786616 -0.00005, -5.6241836426767975 -0.00005, -85.1875 -0.00005 M85.1875 -0.00005 C26.47575346994534 -0.00005, -32.23599306010932 -0.00005, -85.1875 -0.00005" stroke="#9370DB" stroke-width="1.3" fill="none" stroke-dasharray="0 0"/></g><g class="divider"><path d="M-19.81255 0 L-19.81245 0 L-19.81245 42.75 L-19.81255 42.75" stroke="none" stroke-width="0" fill="#ECECFF" fill-rule="evenodd"/><path d="M-19.81255 0 C-19.812511903722534 0, -19.812473807445066 0, -19.81245 0 M-19.81255 0 C-19.81252498519403 0, -19.812499970388057 0, -19.81245 0 M-19.81245 0 C-19.81245 12.46405338510034, -19.81245 24.92810677020068, -19.81245 42.75 M-19.81245 0 C-19.81245 10.258908068588989, -19.81245 20.517816137177977, -19.81245 42.75 M-19.81245 42.75 C-19.812478665753865 42.75, -19.812507331507735 42.75, -19.81255 42.75 M-19.81245 42.75 C-19.81248808425036 42.75, -19.812526168500725 42.75, -19.81255 42.75 M-19.81255 42.75 C-19.81255 27.68704351871692, -19.81255 12.624087037433835, -19.81255 0 M-19.81255 42.75 C-19.81255 28.200662315903983, -19.81255 13.65132463180797, -19.81255 0" stroke="#9370DB" stroke-width="1.3" fill="none" stroke-dasharray="0 0"/></g><g class="divider"><path d="M42.046825 0 L42.046925 0 L42.046925 42.75 L42.046825 42.75" stroke="none" stroke-width="0" fill="#ECECFF" fill-rule="evenodd"/><path d="M42.046825 0 C42.0468542474655 0, 42.046883494930995 0, 42.046925 0 M42.046825 0 C42.04685922688197 0, 42.04689345376394 0, 42.046925 0 M42.046925 0 C42.046925 11.04272825974779, 42.046925 22.08545651949558, 42.046925 42.75 M42.046925 0 C42.046925 14.598942194015708, 42.046925 29.197884388031415, 42.046925 42.75 M42.046925 42.75 C42.046886662841246 42.75, 42.0468483256825 42.75, 42.046825 42.75 M42.046925 42.75 C42.046898505437206 42.75, 42.04687201087441 42.75, 42.046825 42.75 M42.046825 42.75 C42.046825 31.60573631020298, 42.046825 20.461472620405953, 42.046825 0 M42.046825 42.75 C42.046825 26.706109312855773, 42.046825 10.662218625711546, 42.046825 0" stroke="#9370DB" stroke-width="1.3" fill="none" stroke-dasharray="0 0"/></g><g class="divider"><path d="M-85.1875 -0.00005 L-85.1875 0.00005 L85.1875 0.00005 L85.1875 -0.00005" stroke="none" stroke-width="0" fill="#ECECFF" fill-rule="evenodd"/><path d="M-85.1875 -0.00005 C-85.1875 -0.000025396347833287644, -85.1875 -7.926956665752847e-7, -85.1875 0.00005 M-85.1875 -0.00005 C-85.1875 -0.000025509163702961823, -85.1875 -0.000001018327405923644, -85.1875 0.00005 M-85.1875 0.00005 C-38.02877352485128 0.00005, 9.129952950297437 0.00005, 85.1875 0.00005 M-85.1875 0.00005 C-24.536730994174256 0.00005, 36.11403801165149 0.00005, 85.1875 0.00005 M85.1875 0.00005 C85.1875 0.000024374487522933598, 85.1875 -0.0000012510249541328072, 85.1875 -0.00005 M85.1875 0.00005 C85.1875 0.000017441671583324072, 85.1875 -0.000015116656833351858, 85.1875 -0.00005 M85.1875 -0.00005 C37.16595011464324 -0.00005, -10.855599770713525 -0.00005, -85.1875 -0.00005 M85.1875 -0.00005 C41.26677856642661 -0.00005, -2.6539428671467817 -0.00005, -85.1875 -0.00005" stroke="#9370DB" stroke-width="1.3" fill="none" stroke-dasharray="0 0"/></g></g><g class="node default" id="my-svg-entity-MONHOC-1" data-look="classic" transform="translate(98.9765625, 237.25)"><g class="outer-path" style=""><path d="M-90.9765625 -42.75 L90.9765625 -42.75 L90.9765625 42.75 L-90.9765625 42.75" stroke="none" stroke-width="0" fill="#ECECFF"/><path d="M-90.9765625 -42.75 C-45.24704971906799 -42.75, 0.4824630618640242 -42.75, 90.9765625 -42.75 M-90.9765625 -42.75 C-24.62122978899407 -42.75, 41.73410292201186 -42.75, 90.9765625 -42.75 M90.9765625 -42.75 C90.9765625 -17.25160924089164, 90.9765625 8.246781518216721, 90.9765625 42.75 M90.9765625 -42.75 C90.9765625 -14.73054575107755, 90.9765625 13.2889084978449, 90.9765625 42.75 M90.9765625 42.75 C24.813188166190017 42.75, -41.35018616761997 42.75, -90.9765625 42.75 M90.9765625 42.75 C47.23637695712659 42.75, 3.4961914142531754 42.75, -90.9765625 42.75 M-90.9765625 42.75 C-90.9765625 19.06806917559381, -90.9765625 -4.613861648812382, -90.9765625 -42.75 M-90.9765625 42.75 C-90.9765625 9.64621736436088, -90.9765625 -23.45756527127824, -90.9765625 -42.75" stroke="#9370DB" stroke-width="1.3" fill="none" stroke-dasharray="0 0"/></g><g style="" class="row-rect-odd"><path d="M-90.9765625 0 L90.9765625 0 L90.9765625 42.75 L-90.9765625 42.75" stroke="none" stroke-width="0" fill="hsl(240, 100%, 100%)"/><path d="M-90.9765625 0 C-45.389155082748324 0, 0.19825233450335134 0, 90.9765625 0 M-90.9765625 0 C-34.11359663835815 0, 22.749369223283693 0, 90.9765625 0 M90.9765625 0 C90.9765625 10.205937087286099, 90.9765625 20.411874174572198, 90.9765625 42.75 M90.9765625 0 C90.9765625 9.702278531121308, 90.9765625 19.404557062242617, 90.9765625 42.75 M90.9765625 42.75 C21.888582508959814 42.75, -47.19939748208037 42.75, -90.9765625 42.75 M90.9765625 42.75 C42.58005588301161 42.75, -5.8164507339767795 42.75, -90.9765625 42.75 M-90.9765625 42.75 C-90.9765625 31.729201565961816, -90.9765625 20.708403131923635, -90.9765625 0 M-90.9765625 42.75 C-90.9765625 33.381022966635484, -90.9765625 24.01204593327097, -90.9765625 0" stroke="#9370DB" stroke-width="1.3" fill="none" stroke-dasharray="0 0"/></g><g class="label name" transform="translate(-31.5859375, -33.375)" style=""><foreignObject width="63.171875" height="24"><div xmlns="http://www.w3.org/1999/xhtml" style="display: table-cell; white-space: nowrap; line-height: 1.5; max-width: 172px; text-align: start;"><span class="nodeLabel"><p>MONHOC</p></span></div></foreignObject></g><g class="label attribute-type" transform="translate(-78.4765625, 9.375)" style=""><foreignObject width="40.375" height="24"><div xmlns="http://www.w3.org/1999/xhtml" style="display: table-cell; white-space: nowrap; line-height: 1.5; max-width: 136px; text-align: start;"><span class="nodeLabel"><p>string</p></span></div></foreignObject></g><g class="label attribute-name" transform="translate(-13.1015625, 9.375)" style=""><foreignObject width="48.4375" height="24"><div xmlns="http://www.w3.org/1999/xhtml" style="display: table-cell; white-space: nowrap; line-height: 1.5; max-width: 154px; text-align: start;"><span class="nodeLabel"><p>MaMon</p></span></div></foreignObject></g><g class="label attribute-keys" transform="translate(60.3359375, 9.375)" style=""><foreignObject width="18.140625" height="24"><div xmlns="http://www.w3.org/1999/xhtml" style="display: table-cell; white-space: nowrap; line-height: 1.5; max-width: 122px; text-align: start;"><span class="nodeLabel"><p>PK</p></span></div></foreignObject></g><g class="label attribute-comment" transform="translate(103.4765625, 9.375)" style=""><foreignObject width="0" height="0"><div xmlns="http://www.w3.org/1999/xhtml" style="display: table-cell; white-space: nowrap; line-height: 1.5; max-width: 100px; text-align: start;"><span class="nodeLabel"></span></div></foreignObject></g><g class="divider"><path d="M-90.9765625 -0.00005 L-90.9765625 0.00005 L90.9765625 0.00005 L90.9765625 -0.00005" stroke="none" stroke-width="0" fill="#ECECFF" fill-rule="evenodd"/><path d="M-90.9765625 -0.00005 C-90.9765625 -0.000014943603261568096, -90.9765625 0.00002011279347686381, -90.9765625 0.00005 M-90.9765625 -0.00005 C-90.9765625 -0.000017003519334962533, -90.9765625 0.000015992961330074937, -90.9765625 0.00005 M-90.9765625 0.00005 C-27.408903817098363 0.00005, 36.158754865803274 0.00005, 90.9765625 0.00005 M-90.9765625 0.00005 C-28.322171610997636 0.00005, 34.33221927800473 0.00005, 90.9765625 0.00005 M90.9765625 0.00005 C90.9765625 0.000028551736108012393, 90.9765625 0.000007103472216024783, 90.9765625 -0.00005 M90.9765625 0.00005 C90.9765625 0.00002290354333074925, 90.9765625 -0.000004192913338501505, 90.9765625 -0.00005 M90.9765625 -0.00005 C47.20560687746868 -0.00005, 3.4346512549373642 -0.00005, -90.9765625 -0.00005 M90.9765625 -0.00005 C20.45994855809188 -0.00005, -50.05666538381624 -0.00005, -90.9765625 -0.00005" stroke="#9370DB" stroke-width="1.3" fill="none" stroke-dasharray="0 0"/></g><g class="divider"><path d="M-25.6016125 0 L-25.6015125 0 L-25.6015125 42.75 L-25.6016125 42.75" stroke="none" stroke-width="0" fill="#ECECFF" fill-rule="evenodd"/><path d="M-25.6016125 0 C-25.601584572254293 0, -25.601556644508584 0, -25.6015125 0 M-25.6016125 0 C-25.6015735923948 0, -25.601534684789595 0, -25.6015125 0 M-25.6015125 0 C-25.6015125 11.09825805285843, -25.6015125 22.19651610571686, -25.6015125 42.75 M-25.6015125 0 C-25.6015125 15.33796917091296, -25.6015125 30.67593834182592, -25.6015125 42.75 M-25.6015125 42.75 C-25.601545506255032 42.75, -25.601578512510063 42.75, -25.6016125 42.75 M-25.6015125 42.75 C-25.601536472854445 42.75, -25.60156044570889 42.75, -25.6016125 42.75 M-25.6016125 42.75 C-25.6016125 26.287380309361268, -25.6016125 9.824760618722536, -25.6016125 0 M-25.6016125 42.75 C-25.6016125 33.115924525174826, -25.6016125 23.481849050349652, -25.6016125 0" stroke="#9370DB" stroke-width="1.3" fill="none" stroke-dasharray="0 0"/></g><g class="divider"><path d="M47.8358875 0 L47.8359875 0 L47.8359875 42.75 L47.8358875 42.75" stroke="none" stroke-width="0" fill="#ECECFF" fill-rule="evenodd"/><path d="M47.8358875 0 C47.835924887710135 0, 47.83596227542027 0, 47.8359875 0 M47.8358875 0 C47.8359075095496 0, 47.835927519099194 0, 47.8359875 0 M47.8359875 0 C47.8359875 11.179893215094205, 47.8359875 22.35978643018841, 47.8359875 42.75 M47.8359875 0 C47.8359875 11.220494896613255, 47.8359875 22.44098979322651, 47.8359875 42.75 M47.8359875 42.75 C47.83595298305412 42.75, 47.83591846610823 42.75, 47.8358875 42.75 M47.8359875 42.75 C47.83595042944156 42.75, 47.83591335888312 42.75, 47.8358875 42.75 M47.8358875 42.75 C47.8358875 32.49602447926084, 47.8358875 22.24204895852167, 47.8358875 0 M47.8358875 42.75 C47.8358875 27.588818754119703, 47.8358875 12.427637508239407, 47.8358875 0" stroke="#9370DB" stroke-width="1.3" fill="none" stroke-dasharray="0 0"/></g><g class="divider"><path d="M-90.9765625 -0.00005 L-90.9765625 0.00005 L90.9765625 0.00005 L90.9765625 -0.00005" stroke="none" stroke-width="0" fill="#ECECFF" fill-rule="evenodd"/><path d="M-90.9765625 -0.00005 C-90.9765625 -0.00001227690278463391, -90.9765625 0.000025446194430732182, -90.9765625 0.00005 M-90.9765625 -0.00005 C-90.9765625 -0.00002499967543505342, -90.9765625 6.491298931617919e-10, -90.9765625 0.00005 M-90.9765625 0.00005 C-30.059941378312303 0.00005, 30.856679743375395 0.00005, 90.9765625 0.00005 M-90.9765625 0.00005 C-32.00591020337591 0.00005, 26.964742093248177 0.00005, 90.9765625 0.00005 M90.9765625 0.00005 C90.9765625 0.000023713407579954238, 90.9765625 -0.0000025731848400915264, 90.9765625 -0.00005 M90.9765625 0.00005 C90.9765625 0.00001795370860930218, 90.9765625 -0.000014092582781395645, 90.9765625 -0.00005 M90.9765625 -0.00005 C43.92821514035135 -0.00005, -3.1201322192973038 -0.00005, -90.9765625 -0.00005 M90.9765625 -0.00005 C23.964371946304425 -0.00005, -43.04781860739115 -0.00005, -90.9765625 -0.00005" stroke="#9370DB" stroke-width="1.3" fill="none" stroke-dasharray="0 0"/></g></g></g></g></g><defs><filter id="my-svg-drop-shadow" height="130%" width="130%"><feDropShadow dx="4" dy="4" stdDeviation="0" flood-opacity="0.06" flood-color="#000000"/></filter></defs><defs><filter id="my-svg-drop-shadow-small" height="150%" width="150%"><feDropShadow dx="2" dy="2" stdDeviation="0" flood-opacity="0.06" flood-color="#000000"/></filter></defs></svg>